# xmcd CD database file
#
# Track frame offsets:
#	150
#	15840
#	28708
#	43678
#	53728
#	62150
#	78752
#	91490
#	103966
#	120914
#	132919
#	144670
#
# Disc length: 2112 seconds
#
# Revision: 0
# Processed by: cddbd v1.5.2PL0 Copyright (c) Steve Scherf et al.
# Submitted via: CDex 1.70beta2
#
DISCID=96083e0c
DTITLE=Arne Benoni og Jenny Jenssen - From Our Hearts
DYEAR=2010
DGENRE=Country
TTITLE0=Rings of gold 
TTITLE1=I got you
TTITLE2=When two worlds collide
TTITLE3=I don't care 
TTITLE4=Dear John
TTITLE5=I won't take less than your love
TTITLE6=You're my best friend 
TTITLE7=Loose talk
TTITLE8=My elusive dreams
TTITLE9=We'll sing in the sunshine 
TTITLE10=Love is no excuse
TTITLE11=Thank god for the radio 
EXTD=YEAR: 2010
EXTT0=
EXTT1=
EXTT2=
EXTT3=
EXTT4=
EXTT5=
EXTT6=
EXTT7=
EXTT8=
EXTT9=
EXTT10=
EXTT11=
PLAYORDER=
